<svg xmlns="http://www.w3.org/2000/svg" xmlns:xlink="http://www.w3.org/1999/xlink" width="400" zoomAndPan="magnify" viewBox="0 0 300 299.999988" height="400" preserveAspectRatio="xMidYMid meet" version="1.0"><defs><g/><clipPath id="0293b75125"><path d="M 21.003906 -10.707031 L 282.15625 -10.707031 C 303.28125 -10.707031 320.40625 6.417969 320.40625 27.542969 L 320.40625 310.980469 C 320.40625 332.105469 303.28125 349.230469 282.15625 349.230469 L 21.003906 349.230469 C -0.121094 349.230469 -17.246094 332.105469 -17.246094 310.980469 L -17.246094 27.542969 C -17.246094 6.417969 -0.121094 -10.707031 21.003906 -10.707031 Z M 21.003906 -10.707031 " clip-rule="nonzero"/></clipPath><clipPath id="82d66f1bdb"><path d="M 0 0 L 300 0 L 300 300 L 0 300 Z M 0 0 " clip-rule="nonzero"/></clipPath><clipPath id="7be135f7ca"><path d="M 21.003906 -10.707031 L 282.15625 -10.707031 C 303.28125 -10.707031 320.40625 6.417969 320.40625 27.542969 L 320.40625 310.980469 C 320.40625 332.105469 303.28125 349.230469 282.15625 349.230469 L 21.003906 349.230469 C -0.121094 349.230469 -17.246094 332.105469 -17.246094 310.980469 L -17.246094 27.542969 C -17.246094 6.417969 -0.121094 -10.707031 21.003906 -10.707031 Z M 21.003906 -10.707031 " clip-rule="nonzero"/></clipPath><clipPath id="ad8b3f59e2"><rect x="0" width="300" y="0" height="300"/></clipPath><clipPath id="1b3cc50602"><path d="M 21.003906 -10.707031 L 282.144531 -10.707031 C 303.269531 -10.707031 320.394531 6.414062 320.394531 27.539062 L 320.394531 310.972656 C 320.394531 332.097656 303.269531 349.222656 282.144531 349.222656 L 21.003906 349.222656 C -0.121094 349.222656 -17.246094 332.097656 -17.246094 310.972656 L -17.246094 27.539062 C -17.246094 6.414062 -0.121094 -10.707031 21.003906 -10.707031 Z M 21.003906 -10.707031 " clip-rule="nonzero"/></clipPath><clipPath id="6713c50bb9"><path d="M 24.359375 30.15625 L 275.609375 30.15625 L 275.609375 281.40625 L 24.359375 281.40625 Z M 24.359375 30.15625 " clip-rule="nonzero"/></clipPath><clipPath id="c12f4695e7"><path d="M 149.996094 30.15625 C 80.609375 30.15625 24.359375 86.40625 24.359375 155.792969 C 24.359375 225.179688 80.609375 281.429688 149.996094 281.429688 C 219.386719 281.429688 275.632812 225.179688 275.632812 155.792969 C 275.632812 86.40625 219.386719 30.15625 149.996094 30.15625 Z M 149.996094 30.15625 " clip-rule="nonzero"/></clipPath><clipPath id="1d4cd0c5a1"><path d="M 97.117188 35.617188 L 202.867188 35.617188 L 202.867188 281.613281 L 97.117188 281.613281 Z M 97.117188 35.617188 " clip-rule="nonzero"/></clipPath><clipPath id="58e403ed4e"><path d="M 149.996094 35.617188 C 120.789062 35.617188 97.117188 90.640625 97.117188 158.519531 C 97.117188 226.394531 120.789062 281.421875 149.996094 281.421875 C 179.203125 281.421875 202.878906 226.394531 202.878906 158.519531 C 202.878906 90.640625 179.203125 35.617188 149.996094 35.617188 Z M 149.996094 35.617188 " clip-rule="nonzero"/></clipPath><clipPath id="88470b0734"><path d="M 34.664062 140.242188 L 265.382812 140.242188 L 265.382812 168.625 L 34.664062 168.625 Z M 34.664062 140.242188 " clip-rule="nonzero"/></clipPath><clipPath id="50e641185b"><path d="M 48.855469 140.242188 L 251.144531 140.242188 C 258.980469 140.242188 265.335938 146.597656 265.335938 154.433594 C 265.335938 162.273438 258.980469 168.625 251.144531 168.625 L 48.855469 168.625 C 41.019531 168.625 34.664062 162.273438 34.664062 154.433594 C 34.664062 146.597656 41.019531 140.242188 48.855469 140.242188 Z M 48.855469 140.242188 " clip-rule="nonzero"/></clipPath><clipPath id="065d7848f1"><path d="M 0.664062 0.242188 L 231.382812 0.242188 L 231.382812 28.625 L 0.664062 28.625 Z M 0.664062 0.242188 " clip-rule="nonzero"/></clipPath><clipPath id="f88869aa3a"><path d="M 14.855469 0.242188 L 217.144531 0.242188 C 224.980469 0.242188 231.335938 6.597656 231.335938 14.433594 C 231.335938 22.273438 224.980469 28.625 217.144531 28.625 L 14.855469 28.625 C 7.019531 28.625 0.664062 22.273438 0.664062 14.433594 C 0.664062 6.597656 7.019531 0.242188 14.855469 0.242188 Z M 14.855469 0.242188 " clip-rule="nonzero"/></clipPath><clipPath id="71e5a3b65a"><rect x="0" width="232" y="0" height="29"/></clipPath><clipPath id="2f5cb937ff"><path d="M 57.632812 47.875 L 242.132812 47.875 L 242.132812 140.125 L 57.632812 140.125 Z M 57.632812 47.875 " clip-rule="nonzero"/></clipPath><clipPath id="97743cb0af"><path d="M 45.585938 191.335938 L 252.488281 191.335938 L 252.488281 218.203125 L 45.585938 218.203125 Z M 45.585938 191.335938 " clip-rule="nonzero"/></clipPath><clipPath id="89a523878c"><path d="M 0.585938 0.335938 L 207.488281 0.335938 L 207.488281 27.203125 L 0.585938 27.203125 Z M 0.585938 0.335938 " clip-rule="nonzero"/></clipPath><clipPath id="1648f0ba87"><rect x="0" width="208" y="0" height="28"/></clipPath><clipPath id="88eb66ff3f"><path d="M 57.632812 73.367188 L 242.367188 73.367188 L 242.367188 97.613281 L 57.632812 97.613281 Z M 57.632812 73.367188 " clip-rule="nonzero"/></clipPath><clipPath id="6796128d58"><path d="M 0.632812 0.367188 L 185.367188 0.367188 L 185.367188 24.613281 L 0.632812 24.613281 Z M 0.632812 0.367188 " clip-rule="nonzero"/></clipPath><clipPath id="29a8f392b5"><rect x="0" width="186" y="0" height="25"/></clipPath><clipPath id="a1548c7bd4"><path d="M 200.144531 18.566406 L 275.894531 18.566406 L 275.894531 94.316406 L 200.144531 94.316406 Z M 200.144531 18.566406 " clip-rule="nonzero"/></clipPath></defs><rect x="-30" width="360" fill="#ffffff" y="-29.999999" height="359.999986" fill-opacity="1"/><rect x="-30" width="360" fill="#ffffff" y="-29.999999" height="359.999986" fill-opacity="1"/><g clip-path="url(#0293b75125)"><g transform="matrix(1, 0, 0, 1, 0, 0)"><g clip-path="url(#ad8b3f59e2)"><g clip-path="url(#82d66f1bdb)"><g clip-path="url(#7be135f7ca)"><rect x="-66" width="432" fill="#ff2e56" height="431.999983" y="-65.999997" fill-opacity="1"/></g></g></g></g></g><g clip-path="url(#1b3cc50602)"><path stroke-linecap="butt" transform="matrix(0.75, 0, 0, 0.75, -17.245404, -10.708881)" fill="none" stroke-linejoin="miter" d="M 50.999085 0.00246661 L 399.186613 0.00246661 C 427.353282 0.00246661 450.186617 22.830593 450.186617 50.997262 L 450.186617 428.908752 C 450.186617 457.075421 427.353282 479.908756 399.186613 479.908756 L 50.999085 479.908756 C 22.832416 479.908756 -0.000919625 457.075421 -0.000919625 428.908752 L -0.000919625 50.997262 C -0.000919625 22.830593 22.832416 0.00246661 50.999085 0.00246661 Z M 50.999085 0.00246661 " stroke="#000000" stroke-width="8" stroke-opacity="1" stroke-miterlimit="4"/></g><g clip-path="url(#6713c50bb9)"><g clip-path="url(#c12f4695e7)"><path stroke-linecap="butt" transform="matrix(0.75, 0, 0, 0.75, 24.361117, 30.157289)" fill="none" stroke-linejoin="miter" d="M 167.513316 -0.00138498 C 74.997683 -0.00138498 -0.00232316 74.998621 -0.00232316 167.514254 C -0.00232316 260.029886 74.997683 335.029892 167.513316 335.029892 C 260.034156 335.029892 335.028954 260.029886 335.028954 167.514254 C 335.028954 74.998621 260.034156 -0.00138498 167.513316 -0.00138498 Z M 167.513316 -0.00138498 " stroke="#fdcf60" stroke-width="52" stroke-opacity="1" stroke-miterlimit="4"/></g></g><g clip-path="url(#1d4cd0c5a1)"><g clip-path="url(#58e403ed4e)"><path stroke-linecap="butt" transform="matrix(0.75, 0, 0, 0.75, 97.115271, 35.611854)" fill="none" stroke-linejoin="miter" d="M 70.50777 0.00711169 C 31.565058 0.00711169 0.00255551 73.371701 0.00255551 163.876917 C 0.00255551 254.376924 31.565058 327.746722 70.50777 327.746722 C 109.450481 327.746722 141.018192 254.376924 141.018192 163.876917 C 141.018192 73.371701 109.450481 0.00711169 70.50777 0.00711169 Z M 70.50777 0.00711169 " stroke="#fdcf60" stroke-width="52" stroke-opacity="1" stroke-miterlimit="4"/></g></g><g clip-path="url(#88470b0734)"><g clip-path="url(#50e641185b)"><g transform="matrix(1, 0, 0, 1, 34, 140)"><g clip-path="url(#71e5a3b65a)"><g clip-path="url(#065d7848f1)"><g clip-path="url(#f88869aa3a)"><path fill="#fdcf60" d="M 0.664062 0.242188 L 231.382812 0.242188 L 231.382812 28.625 L 0.664062 28.625 Z M 0.664062 0.242188 " fill-opacity="1" fill-rule="nonzero"/></g></g></g></g></g></g><g clip-path="url(#2f5cb937ff)"><path fill="#ff2e56" d="M 57.640625 140.230469 C 57.640625 89.226562 98.988281 47.875 149.996094 47.875 C 201 47.875 242.351562 89.226562 242.351562 140.230469 Z M 57.640625 140.230469 " fill-opacity="1" fill-rule="nonzero"/></g><g fill="#ffffff" fill-opacity="1"><g transform="translate(60.714582, 136.919828)"><g><path d="M 0.421875 0 L 8.59375 -30.609375 L 17.09375 -30.609375 L 25.078125 0 L 18.625 0 L 17 -7.015625 L 8.453125 -7.015625 L 6.84375 0 Z M 9.609375 -11.984375 L 15.8125 -11.984375 L 13.484375 -22.0625 C 13.390625 -22.488281 13.300781 -22.945312 13.21875 -23.4375 C 13.132812 -23.9375 13.066406 -24.414062 13.015625 -24.875 C 12.953125 -25.351562 12.894531 -25.847656 12.84375 -26.359375 L 12.578125 -26.359375 C 12.523438 -25.847656 12.457031 -25.351562 12.375 -24.875 C 12.3125 -24.414062 12.242188 -23.9375 12.171875 -23.4375 C 12.109375 -22.945312 12.019531 -22.488281 11.90625 -22.0625 Z M 9.609375 -11.984375 "/></g></g></g><g fill="#ffffff" fill-opacity="1"><g transform="translate(86.223998, 136.919828)"><g><path d="M 2.765625 -30.609375 L 12.96875 -30.609375 C 14.632812 -30.609375 16.132812 -30.390625 17.46875 -29.953125 C 18.800781 -29.515625 19.9375 -28.890625 20.875 -28.078125 C 21.8125 -27.273438 22.535156 -26.296875 23.046875 -25.140625 C 23.554688 -23.992188 23.8125 -22.695312 23.8125 -21.25 C 23.8125 -19.269531 23.328125 -17.570312 22.359375 -16.15625 C 21.398438 -14.738281 20.066406 -13.660156 18.359375 -12.921875 L 24.234375 0 L 17.4375 0 L 12.25 -11.90625 L 9.09375 -11.90625 L 9.09375 0 L 2.765625 0 Z M 9.09375 -16.796875 L 12.96875 -16.796875 C 14.351562 -16.796875 15.441406 -17.171875 16.234375 -17.921875 C 17.035156 -18.671875 17.4375 -19.679688 17.4375 -20.953125 C 17.4375 -22.285156 17.03125 -23.34375 16.21875 -24.125 C 15.414062 -24.90625 14.332031 -25.296875 12.96875 -25.296875 L 9.09375 -25.296875 Z M 9.09375 -16.796875 "/></g></g></g><g fill="#ffffff" fill-opacity="1"><g transform="translate(111.733415, 136.919828)"><g><path d="M 0.421875 0 L 8.59375 -30.609375 L 17.09375 -30.609375 L 25.078125 0 L 18.625 0 L 17 -7.015625 L 8.453125 -7.015625 L 6.84375 0 Z M 9.609375 -11.984375 L 15.8125 -11.984375 L 13.484375 -22.0625 C 13.390625 -22.488281 13.300781 -22.945312 13.21875 -23.4375 C 13.132812 -23.9375 13.066406 -24.414062 13.015625 -24.875 C 12.953125 -25.351562 12.894531 -25.847656 12.84375 -26.359375 L 12.578125 -26.359375 C 12.523438 -25.847656 12.457031 -25.351562 12.375 -24.875 C 12.3125 -24.414062 12.242188 -23.9375 12.171875 -23.4375 C 12.109375 -22.945312 12.019531 -22.488281 11.90625 -22.0625 Z M 9.609375 -11.984375 "/></g></g></g><g fill="#ffffff" fill-opacity="1"><g transform="translate(137.242831, 136.919828)"><g><path d="M 12.96875 -31.03125 C 14.550781 -31.03125 15.992188 -30.800781 17.296875 -30.34375 C 18.609375 -29.894531 19.726562 -29.253906 20.65625 -28.421875 C 21.59375 -27.585938 22.316406 -26.582031 22.828125 -25.40625 C 23.335938 -24.226562 23.59375 -22.914062 23.59375 -21.46875 L 17.21875 -21.46875 C 17.21875 -22.65625 16.832031 -23.585938 16.0625 -24.265625 C 15.300781 -24.953125 14.269531 -25.296875 12.96875 -25.296875 C 11.632812 -25.296875 10.578125 -24.953125 9.796875 -24.265625 C 9.015625 -23.585938 8.625 -22.65625 8.625 -21.46875 L 8.625 -9.140625 C 8.625 -7.953125 9 -7.015625 9.75 -6.328125 C 10.507812 -5.648438 11.566406 -5.3125 12.921875 -5.3125 C 14.253906 -5.3125 15.300781 -5.664062 16.0625 -6.375 C 16.832031 -7.082031 17.21875 -8.003906 17.21875 -9.140625 L 23.59375 -9.140625 C 23.59375 -7.691406 23.335938 -6.378906 22.828125 -5.203125 C 22.316406 -4.023438 21.59375 -3.019531 20.65625 -2.1875 C 19.726562 -1.351562 18.609375 -0.707031 17.296875 -0.25 C 15.992188 0.195312 14.535156 0.421875 12.921875 0.421875 C 11.304688 0.421875 9.847656 0.195312 8.546875 -0.25 C 7.242188 -0.707031 6.125 -1.351562 5.1875 -2.1875 C 4.25 -3.019531 3.523438 -4.023438 3.015625 -5.203125 C 2.503906 -6.378906 2.25 -7.691406 2.25 -9.140625 L 2.25 -21.46875 C 2.25 -22.914062 2.503906 -24.226562 3.015625 -25.40625 C 3.523438 -26.582031 4.25 -27.585938 5.1875 -28.421875 C 6.125 -29.253906 7.25 -29.894531 8.5625 -30.34375 C 9.882812 -30.800781 11.351562 -31.03125 12.96875 -31.03125 Z M 12.96875 -31.03125 "/></g></g></g><g fill="#ffffff" fill-opacity="1"><g transform="translate(162.752248, 136.919828)"><g><path d="M 9.140625 -30.609375 L 9.140625 -18.875 L 16.375 -18.875 L 16.375 -30.609375 L 22.75 -30.609375 L 22.75 0 L 16.375 0 L 16.375 -12.921875 L 9.140625 -12.921875 L 9.140625 0 L 2.765625 0 L 2.765625 -30.609375 Z M 9.140625 -30.609375 "/></g></g></g><g fill="#ffffff" fill-opacity="1"><g transform="translate(188.261664, 136.919828)"><g><path d="M 2.46875 -30.609375 L 10.203125 -30.609375 L 17 -10.328125 C 17.144531 -9.929688 17.257812 -9.457031 17.34375 -8.90625 C 17.425781 -8.351562 17.5 -7.835938 17.5625 -7.359375 C 17.613281 -6.765625 17.671875 -6.15625 17.734375 -5.53125 L 18.328125 -5.53125 C 18.328125 -5.53125 18.289062 -5.785156 18.21875 -6.296875 C 18.144531 -6.804688 18.066406 -7.441406 17.984375 -8.203125 C 17.898438 -8.972656 17.8125 -9.800781 17.71875 -10.6875 C 17.632812 -11.582031 17.59375 -12.398438 17.59375 -13.140625 L 17.59375 -30.609375 L 23.046875 -30.609375 L 23.046875 0 L 15.3125 0 L 8.625 -20.28125 C 8.488281 -20.757812 8.363281 -21.273438 8.25 -21.828125 C 8.132812 -22.378906 8.050781 -22.898438 8 -23.390625 C 7.9375 -23.953125 7.890625 -24.515625 7.859375 -25.078125 L 7.265625 -25.078125 C 7.378906 -24.234375 7.492188 -23.367188 7.609375 -22.484375 C 7.660156 -21.753906 7.722656 -20.945312 7.796875 -20.0625 C 7.867188 -19.1875 7.90625 -18.335938 7.90625 -17.515625 L 7.90625 0 L 2.46875 0 Z M 2.46875 -30.609375 "/></g></g></g><g fill="#ffffff" fill-opacity="1"><g transform="translate(213.77108, 136.919828)"><g><path d="M 3.40625 0 L 3.40625 -30.609375 L 22.75 -30.609375 L 22.75 -25.078125 L 9.78125 -25.078125 L 9.78125 -18.453125 L 21.25 -18.453125 L 21.25 -12.921875 L 9.78125 -12.921875 L 9.78125 -5.53125 L 22.75 -5.53125 L 22.75 0 Z M 3.40625 0 "/></g></g></g><g clip-path="url(#97743cb0af)"><g transform="matrix(1, 0, 0, 1, 45, 191)"><g clip-path="url(#1648f0ba87)"><g clip-path="url(#89a523878c)"><path fill="#fdcf60" d="M 0.585938 0.335938 L 207.441406 0.335938 L 207.441406 27.203125 L 0.585938 27.203125 Z M 0.585938 0.335938 " fill-opacity="1" fill-rule="nonzero"/></g></g></g></g><g clip-path="url(#88eb66ff3f)"><g transform="matrix(1, 0, 0, 1, 57, 73)"><g clip-path="url(#29a8f392b5)"><g clip-path="url(#6796128d58)"><path fill="#fdcf60" d="M 0.632812 0.367188 L 185.402344 0.367188 L 185.402344 24.613281 L 0.632812 24.613281 Z M 0.632812 0.367188 " fill-opacity="1" fill-rule="nonzero"/></g></g></g></g><g clip-path="url(#a1548c7bd4)"><path fill="#4c4cf4" d="M 237.886719 94.054688 C 237.886719 94.054688 237.464844 88.605469 236.15625 82.261719 C 234.84375 75.917969 232.640625 68.6875 229.074219 65.121094 C 225.511719 61.558594 218.277344 59.355469 211.933594 58.042969 C 205.59375 56.730469 200.140625 56.308594 200.140625 56.308594 C 200.140625 56.308594 205.59375 55.886719 211.933594 54.574219 C 218.277344 53.261719 225.511719 51.058594 229.074219 47.496094 C 232.640625 43.929688 234.84375 36.699219 236.15625 30.355469 C 237.464844 24.015625 237.886719 18.5625 237.886719 18.5625 C 237.886719 18.5625 238.308594 24.015625 239.621094 30.355469 C 240.933594 36.699219 243.136719 43.929688 246.699219 47.496094 C 250.265625 51.058594 257.496094 53.261719 263.839844 54.574219 C 270.183594 55.886719 275.632812 56.308594 275.632812 56.308594 C 275.632812 56.308594 270.183594 56.730469 263.839844 58.042969 C 257.496094 59.355469 250.265625 61.558594 246.699219 65.121094 C 243.136719 68.6875 240.933594 75.917969 239.621094 82.261719 C 238.308594 88.605469 237.886719 94.054688 237.886719 94.054688 Z M 237.886719 94.054688 " fill-opacity="1" fill-rule="nonzero"/></g></svg>
