<svg xmlns="http://www.w3.org/2000/svg" xmlns:xlink="http://www.w3.org/1999/xlink" width="400" zoomAndPan="magnify" viewBox="0 0 300 299.999988" height="400" preserveAspectRatio="xMidYMid meet" version="1.0"><defs><clipPath id="4429b62d7a"><path d="M 79.394531 58.5 L 220.605469 58.5 L 220.605469 223.984375 L 79.394531 223.984375 Z M 79.394531 58.5 " clip-rule="nonzero"/></clipPath><clipPath id="eaf4c6f68d"><path d="M 126.488281 62.578125 C 133.707031 60.117188 141.960938 58.5 150.039062 58.5 C 158.117188 58.5 165.890625 59.886719 173.050781 62.347656 C 173.207031 62.421875 173.359375 62.421875 173.511719 62.5 C 200.410156 72.347656 220.226562 98.351562 220.605469 128.558594 L 220.605469 223.972656 L 79.394531 223.972656 L 79.394531 128.628906 C 79.773438 98.199219 99.285156 72.195312 126.488281 62.578125 Z M 126.488281 62.578125 " clip-rule="nonzero"/></clipPath><clipPath id="06a8291aaf"><path d="M 0.394531 0.5 L 141.605469 0.5 L 141.605469 165.984375 L 0.394531 165.984375 Z M 0.394531 0.5 " clip-rule="nonzero"/></clipPath><clipPath id="9bc7d9c301"><path d="M 47.488281 4.578125 C 54.707031 2.117188 62.960938 0.5 71.039062 0.5 C 79.117188 0.5 86.890625 1.886719 94.050781 4.347656 C 94.207031 4.421875 94.359375 4.421875 94.511719 4.5 C 121.410156 14.347656 141.226562 40.351562 141.605469 70.558594 L 141.605469 165.972656 L 0.394531 165.972656 L 0.394531 70.628906 C 0.773438 40.199219 20.285156 14.195312 47.488281 4.578125 Z M 47.488281 4.578125 " clip-rule="nonzero"/></clipPath><clipPath id="8e683a2d14"><rect x="0" width="142" y="0" height="166"/></clipPath><clipPath id="c6e236f50b"><path d="M 79.394531 58.5 L 220.394531 58.5 L 220.394531 224 L 79.394531 224 Z M 79.394531 58.5 " clip-rule="nonzero"/></clipPath><clipPath id="e0bbd561f3"><path d="M 126.488281 62.578125 C 133.707031 60.117188 141.960938 58.5 150.039062 58.5 C 158.117188 58.5 165.886719 59.886719 173.050781 62.347656 C 173.203125 62.421875 173.355469 62.421875 173.507812 62.5 C 200.410156 72.347656 220.222656 98.351562 220.605469 128.554688 L 220.605469 223.96875 L 79.394531 223.96875 L 79.394531 128.628906 C 79.777344 98.199219 99.285156 72.195312 126.488281 62.578125 Z M 126.488281 62.578125 " clip-rule="nonzero"/></clipPath><clipPath id="034d3fff7a"><path d="M 79.394531 237.609375 L 220.605469 237.609375 L 220.605469 300 L 79.394531 300 Z M 79.394531 237.609375 " clip-rule="nonzero"/></clipPath><clipPath id="9d866bc66e"><path d="M 0.394531 0.609375 L 141.605469 0.609375 L 141.605469 63 L 0.394531 63 Z M 0.394531 0.609375 " clip-rule="nonzero"/></clipPath><clipPath id="d0021f339b"><rect x="0" width="142" y="0" height="63"/></clipPath><clipPath id="3d882798f8"><path d="M 79.398438 237.609375 L 220.394531 237.609375 L 220.394531 300 L 79.398438 300 Z M 79.398438 237.609375 " clip-rule="nonzero"/></clipPath><clipPath id="e043074fc4"><path d="M 102.066406 184.789062 L 197.933594 184.789062 L 197.933594 300 L 102.066406 300 Z M 102.066406 184.789062 " clip-rule="nonzero"/></clipPath><clipPath id="755c3c5fd6"><path d="M 150 184.789062 L 197.933594 212.675781 L 197.933594 304.839844 L 150 332.726562 L 102.066406 304.839844 L 102.066406 212.675781 Z M 150 184.789062 " clip-rule="nonzero"/></clipPath><clipPath id="697cac19a9"><path d="M 0.0664062 0.789062 L 95.933594 0.789062 L 95.933594 116 L 0.0664062 116 Z M 0.0664062 0.789062 " clip-rule="nonzero"/></clipPath><clipPath id="e1d0fe33e9"><path d="M 48 0.789062 L 95.933594 28.675781 L 95.933594 120.839844 L 48 148.726562 L 0.0664062 120.839844 L 0.0664062 28.675781 Z M 48 0.789062 " clip-rule="nonzero"/></clipPath><clipPath id="0f5f7f9437"><rect x="0" width="96" y="0" height="116"/></clipPath><clipPath id="386c8bbd16"><path d="M 102.066406 184.796875 L 197.925781 184.796875 L 197.925781 300 L 102.066406 300 Z M 102.066406 184.796875 " clip-rule="nonzero"/></clipPath><clipPath id="f5005d9c73"><path d="M 149.996094 184.796875 L 197.925781 212.683594 L 197.925781 304.832031 L 149.996094 332.71875 L 102.066406 304.832031 L 102.066406 212.683594 Z M 149.996094 184.796875 " clip-rule="nonzero"/></clipPath><clipPath id="fc3efe7c84"><path d="M 107.933594 89.25 L 197.933594 89.25 L 197.933594 179.25 L 107.933594 179.25 Z M 107.933594 89.25 " clip-rule="nonzero"/></clipPath><clipPath id="4507b2f4a6"><path d="M 152.933594 89.25 C 128.082031 89.25 107.933594 109.398438 107.933594 134.25 C 107.933594 159.101562 128.082031 179.25 152.933594 179.25 C 177.785156 179.25 197.933594 159.101562 197.933594 134.25 C 197.933594 109.398438 177.785156 89.25 152.933594 89.25 Z M 152.933594 89.25 " clip-rule="nonzero"/></clipPath><clipPath id="f1fdafa264"><path d="M 0.933594 0.25 L 90.933594 0.25 L 90.933594 90.25 L 0.933594 90.25 Z M 0.933594 0.25 " clip-rule="nonzero"/></clipPath><clipPath id="ac5d5879ed"><path d="M 45.933594 0.25 C 21.082031 0.25 0.933594 20.398438 0.933594 45.25 C 0.933594 70.101562 21.082031 90.25 45.933594 90.25 C 70.785156 90.25 90.933594 70.101562 90.933594 45.25 C 90.933594 20.398438 70.785156 0.25 45.933594 0.25 Z M 45.933594 0.25 " clip-rule="nonzero"/></clipPath><clipPath id="f0cbc5ce6a"><rect x="0" width="91" y="0" height="91"/></clipPath><clipPath id="3c9d4accef"><path d="M 121.644531 115.175781 L 184.222656 115.175781 L 184.222656 177.75 L 121.644531 177.75 Z M 121.644531 115.175781 " clip-rule="nonzero"/></clipPath><clipPath id="5c09b9d890"><path d="M 152.933594 115.175781 C 135.65625 115.175781 121.644531 129.183594 121.644531 146.460938 C 121.644531 163.742188 135.65625 177.75 152.933594 177.75 C 170.214844 177.75 184.222656 163.742188 184.222656 146.460938 C 184.222656 129.183594 170.214844 115.175781 152.933594 115.175781 Z M 152.933594 115.175781 " clip-rule="nonzero"/></clipPath><clipPath id="57ff17df8e"><path d="M 0.644531 0.175781 L 63.222656 0.175781 L 63.222656 62.75 L 0.644531 62.75 Z M 0.644531 0.175781 " clip-rule="nonzero"/></clipPath><clipPath id="9e04462aea"><path d="M 31.933594 0.175781 C 14.65625 0.175781 0.644531 14.183594 0.644531 31.460938 C 0.644531 48.742188 14.65625 62.75 31.933594 62.75 C 49.214844 62.75 63.222656 48.742188 63.222656 31.460938 C 63.222656 14.183594 49.214844 0.175781 31.933594 0.175781 Z M 31.933594 0.175781 " clip-rule="nonzero"/></clipPath><clipPath id="0d8377ff68"><rect x="0" width="64" y="0" height="63"/></clipPath><clipPath id="95357ed9ca"><path d="M 130.511719 131.402344 L 175.359375 131.402344 L 175.359375 176.25 L 130.511719 176.25 Z M 130.511719 131.402344 " clip-rule="nonzero"/></clipPath><clipPath id="59d4e9b3a8"><path d="M 152.933594 131.402344 C 140.550781 131.402344 130.511719 141.441406 130.511719 153.824219 C 130.511719 166.210938 140.550781 176.25 152.933594 176.25 C 165.320312 176.25 175.359375 166.210938 175.359375 153.824219 C 175.359375 141.441406 165.320312 131.402344 152.933594 131.402344 Z M 152.933594 131.402344 " clip-rule="nonzero"/></clipPath><clipPath id="f95ed24f3a"><path d="M 0.511719 0.402344 L 45.359375 0.402344 L 45.359375 45.25 L 0.511719 45.25 Z M 0.511719 0.402344 " clip-rule="nonzero"/></clipPath><clipPath id="c327cc5d7a"><path d="M 22.933594 0.402344 C 10.550781 0.402344 0.511719 10.441406 0.511719 22.824219 C 0.511719 35.210938 10.550781 45.25 22.933594 45.25 C 35.320312 45.25 45.359375 35.210938 45.359375 22.824219 C 45.359375 10.441406 35.320312 0.402344 22.933594 0.402344 Z M 22.933594 0.402344 " clip-rule="nonzero"/></clipPath><clipPath id="9e8ac5e359"><rect x="0" width="46" y="0" height="46"/></clipPath><clipPath id="a700cbc421"><path d="M 12.480469 29.9375 L 30 29.9375 L 30 300 L 12.480469 300 Z M 12.480469 29.9375 " clip-rule="nonzero"/></clipPath><clipPath id="9958705134"><path d="M 12.480469 333.535156 L 12.480469 38.75 C 12.480469 33.910156 16.402344 29.988281 21.242188 29.988281 C 26.078125 29.988281 30 33.910156 30 38.75 L 30 333.535156 C 30 338.375 26.078125 342.292969 21.242188 342.292969 C 16.402344 342.292969 12.480469 338.375 12.480469 333.535156 Z M 12.480469 333.535156 " clip-rule="nonzero"/></clipPath><clipPath id="e577c443c7"><path d="M 0.480469 1 L 18 1 L 18 271 L 0.480469 271 Z M 0.480469 1 " clip-rule="nonzero"/></clipPath><clipPath id="7db6c73973"><path d="M 0.480469 304.535156 L 0.480469 9.75 C 0.480469 4.910156 4.402344 0.988281 9.242188 0.988281 C 14.078125 0.988281 18 4.910156 18 9.75 L 18 304.535156 C 18 309.375 14.078125 313.292969 9.242188 313.292969 C 4.402344 313.292969 0.480469 309.375 0.480469 304.535156 Z M 0.480469 304.535156 " clip-rule="nonzero"/></clipPath><clipPath id="1486ec60ef"><rect x="0" width="18" y="0" height="271"/></clipPath><clipPath id="de1e2e8075"><path d="M 12.480469 30.292969 L 29.730469 30.292969 L 29.730469 300 L 12.480469 300 Z M 12.480469 30.292969 " clip-rule="nonzero"/></clipPath><clipPath id="60c38ffbe1"><path d="M 12.480469 333.46875 L 12.480469 38.828125 C 12.480469 33.992188 16.402344 30.074219 21.234375 30.074219 C 26.070312 30.074219 29.988281 33.992188 29.988281 38.828125 L 29.988281 333.46875 C 29.988281 338.304688 26.070312 342.222656 21.234375 342.222656 C 16.402344 342.222656 12.480469 338.304688 12.480469 333.46875 Z M 12.480469 333.46875 " clip-rule="nonzero"/></clipPath><clipPath id="e3378f1953"><path d="M 45.9375 89.238281 L 63.453125 89.238281 L 63.453125 300 L 45.9375 300 Z M 45.9375 89.238281 " clip-rule="nonzero"/></clipPath><clipPath id="6f8f553406"><path d="M 0.9375 0.238281 L 18.453125 0.238281 L 18.453125 211 L 0.9375 211 Z M 0.9375 0.238281 " clip-rule="nonzero"/></clipPath><clipPath id="1fb437b840"><rect x="0" width="19" y="0" height="211"/></clipPath><clipPath id="a40a76cce3"><path d="M 45.9375 89.542969 L 63.1875 89.542969 L 63.1875 300 L 45.9375 300 Z M 45.9375 89.542969 " clip-rule="nonzero"/></clipPath><clipPath id="dd6ca4b6f7"><path d="M 233.867188 89.238281 L 251.386719 89.238281 L 251.386719 300 L 233.867188 300 Z M 233.867188 89.238281 " clip-rule="nonzero"/></clipPath><clipPath id="f2f6f27342"><path d="M 0.867188 0.238281 L 18.386719 0.238281 L 18.386719 211 L 0.867188 211 Z M 0.867188 0.238281 " clip-rule="nonzero"/></clipPath><clipPath id="27654d9d12"><rect x="0" width="19" y="0" height="211"/></clipPath><clipPath id="3122cfbcb8"><path d="M 233.867188 89.542969 L 251.117188 89.542969 L 251.117188 300 L 233.867188 300 Z M 233.867188 89.542969 " clip-rule="nonzero"/></clipPath><clipPath id="a3f21e95a3"><path d="M 270 29.9375 L 287.515625 29.9375 L 287.515625 300 L 270 300 Z M 270 29.9375 " clip-rule="nonzero"/></clipPath><clipPath id="80d2baf387"><path d="M 270 333.535156 L 270 38.75 C 270 33.910156 273.917969 29.988281 278.757812 29.988281 C 283.59375 29.988281 287.515625 33.910156 287.515625 38.75 L 287.515625 333.535156 C 287.515625 338.375 283.59375 342.292969 278.757812 342.292969 C 273.917969 342.292969 270 338.375 270 333.535156 Z M 270 333.535156 " clip-rule="nonzero"/></clipPath><clipPath id="f5dbff3499"><path d="M 0 1 L 17.515625 1 L 17.515625 271 L 0 271 Z M 0 1 " clip-rule="nonzero"/></clipPath><clipPath id="00e5a5978b"><path d="M 0 304.535156 L 0 9.75 C 0 4.910156 3.917969 0.988281 8.757812 0.988281 C 13.59375 0.988281 17.515625 4.910156 17.515625 9.75 L 17.515625 304.535156 C 17.515625 309.375 13.59375 313.292969 8.757812 313.292969 C 3.917969 313.292969 0 309.375 0 304.535156 Z M 0 304.535156 " clip-rule="nonzero"/></clipPath><clipPath id="62cf21a0af"><rect x="0" width="18" y="0" height="271"/></clipPath><clipPath id="1e8efd8a6e"><path d="M 270 30.292969 L 287.25 30.292969 L 287.25 300 L 270 300 Z M 270 30.292969 " clip-rule="nonzero"/></clipPath><clipPath id="64d888955d"><path d="M 270 333.46875 L 270 38.828125 C 270 33.992188 273.917969 30.074219 278.753906 30.074219 C 283.585938 30.074219 287.507812 33.992188 287.507812 38.828125 L 287.507812 333.46875 C 287.507812 338.304688 283.585938 342.222656 278.753906 342.222656 C 273.917969 342.222656 270 338.304688 270 333.46875 Z M 270 333.46875 " clip-rule="nonzero"/></clipPath></defs><g clip-path="url(#4429b62d7a)"><g clip-path="url(#eaf4c6f68d)"><g transform="matrix(1, 0, 0, 1, 79, 58)"><g clip-path="url(#8e683a2d14)"><g clip-path="url(#06a8291aaf)"><g clip-path="url(#9bc7d9c301)"><path fill="#acc3ff" d="M 0.394531 0.5 L 141.605469 0.5 L 141.605469 165.984375 L 0.394531 165.984375 Z M 0.394531 0.5 " fill-opacity="1" fill-rule="nonzero"/></g></g></g></g></g></g><g clip-path="url(#c6e236f50b)"><g clip-path="url(#e0bbd561f3)"><path stroke-linecap="butt" transform="matrix(0.75, 0, 0, 0.75, 79.395043, 58.499995)" fill="none" stroke-linejoin="miter" d="M 62.790986 5.437506 C 72.415986 2.156256 83.421195 0.00000637 94.192028 0.00000637 C 104.962862 0.00000637 115.322237 1.848965 124.87432 5.130215 C 125.077445 5.229173 125.28057 5.229173 125.483695 5.33334 C 161.353488 18.463548 187.770155 53.135424 188.280571 93.406258 L 188.280571 220.62501 L -0.000681955 220.62501 L -0.000681955 93.505216 C 0.509735 52.932299 26.520152 18.260423 62.790986 5.437506 Z M 62.790986 5.437506 " stroke="#000000" stroke-width="16" stroke-opacity="1" stroke-miterlimit="4"/></g></g><g clip-path="url(#034d3fff7a)"><g transform="matrix(1, 0, 0, 1, 79, 237)"><g clip-path="url(#d0021f339b)"><g clip-path="url(#9d866bc66e)"><path fill="#acc3ff" d="M 0.394531 0.609375 L 141.539062 0.609375 L 141.539062 72.730469 L 0.394531 72.730469 Z M 0.394531 0.609375 " fill-opacity="1" fill-rule="nonzero"/></g></g></g></g><g clip-path="url(#3d882798f8)"><path stroke-linecap="butt" transform="matrix(0.75, 0, 0, 0.75, 79.397284, 237.609077)" fill="none" stroke-linejoin="miter" d="M 0.00153758 0.000397873 L 188.272386 0.000397873 L 188.272386 96.156656 L 0.00153758 96.156656 Z M 0.00153758 0.000397873 " stroke="#000000" stroke-width="16" stroke-opacity="1" stroke-miterlimit="4"/></g><g clip-path="url(#e043074fc4)"><g clip-path="url(#755c3c5fd6)"><g transform="matrix(1, 0, 0, 1, 102, 184)"><g clip-path="url(#0f5f7f9437)"><g clip-path="url(#697cac19a9)"><g clip-path="url(#e1d0fe33e9)"><path fill="#fdcf60" d="M 0.0664062 0.789062 L 95.933594 0.789062 L 95.933594 148.710938 L 0.0664062 148.710938 Z M 0.0664062 0.789062 " fill-opacity="1" fill-rule="nonzero"/></g></g></g></g></g></g><g clip-path="url(#386c8bbd16)"><g clip-path="url(#f5005d9c73)"><path stroke-linecap="butt" transform="matrix(0.75, 0, 0, 0.75, 102.065791, 184.795298)" fill="none" stroke-linejoin="miter" d="M 63.907075 0.00210306 L 127.81333 37.184398 L 127.81333 160.048991 L 63.907075 197.231286 L 0.000819981 160.048991 L 0.000819981 37.184398 Z M 63.907075 0.00210306 " stroke="#000000" stroke-width="16" stroke-opacity="1" stroke-miterlimit="4"/></g></g><g clip-path="url(#fc3efe7c84)"><g clip-path="url(#4507b2f4a6)"><g transform="matrix(1, 0, 0, 1, 107, 89)"><g clip-path="url(#f0cbc5ce6a)"><g clip-path="url(#f1fdafa264)"><g clip-path="url(#ac5d5879ed)"><path fill="#ffffff" d="M 0.933594 0.25 L 90.933594 0.25 L 90.933594 90.25 L 0.933594 90.25 Z M 0.933594 0.25 " fill-opacity="1" fill-rule="nonzero"/></g></g></g></g><path stroke-linecap="butt" transform="matrix(0.75, 0, 0, 0.75, 107.934204, 89.249993)" fill="none" stroke-linejoin="miter" d="M 59.999188 0.00000971833 C 26.863771 0.00000971833 -0.000813114 26.864594 -0.000813114 60.000011 C -0.000813114 93.135428 26.863771 120.000012 59.999188 120.000012 C 93.134605 120.000012 119.999189 93.135428 119.999189 60.000011 C 119.999189 26.864594 93.134605 0.00000971833 59.999188 0.00000971833 Z M 59.999188 0.00000971833 " stroke="#000000" stroke-width="16" stroke-opacity="1" stroke-miterlimit="4"/></g></g><g clip-path="url(#3c9d4accef)"><g clip-path="url(#5c09b9d890)"><g transform="matrix(1, 0, 0, 1, 121, 115)"><g clip-path="url(#0d8377ff68)"><g clip-path="url(#57ff17df8e)"><g clip-path="url(#9e04462aea)"><path fill="#000000" d="M 0.644531 0.175781 L 63.222656 0.175781 L 63.222656 62.75 L 0.644531 62.75 Z M 0.644531 0.175781 " fill-opacity="1" fill-rule="nonzero"/></g></g></g></g></g></g><g clip-path="url(#95357ed9ca)"><g clip-path="url(#59d4e9b3a8)"><g transform="matrix(1, 0, 0, 1, 130, 131)"><g clip-path="url(#9e8ac5e359)"><g clip-path="url(#f95ed24f3a)"><g clip-path="url(#c327cc5d7a)"><path fill="#ffffff" d="M 0.511719 0.402344 L 45.359375 0.402344 L 45.359375 45.25 L 0.511719 45.25 Z M 0.511719 0.402344 " fill-opacity="1" fill-rule="nonzero"/></g></g></g></g></g></g><g clip-path="url(#a700cbc421)"><g clip-path="url(#9958705134)"><g transform="matrix(1, 0, 0, 1, 12, 29)"><g clip-path="url(#1486ec60ef)"><g clip-path="url(#e577c443c7)"><g clip-path="url(#7db6c73973)"><path fill="#acc3ff" d="M 0.480469 313.292969 L 0.480469 1.007812 L 18 1.007812 L 18 313.292969 Z M 0.480469 313.292969 " fill-opacity="1" fill-rule="nonzero"/></g></g></g></g></g></g><g clip-path="url(#de1e2e8075)"><g clip-path="url(#60c38ffbe1)"><path stroke-linecap="butt" transform="matrix(0, -0.75, 0.75, 0, 12.482019, 342.222042)" fill="none" stroke-linejoin="miter" d="M 11.671057 -0.00206708 L 404.525281 -0.00206708 C 410.973199 -0.00206708 416.197158 5.2271 416.197158 11.66981 C 416.197158 18.117727 410.973199 23.341686 404.525281 23.341686 L 11.671057 23.341686 C 5.22314 23.341686 -0.000819464 18.117727 -0.000819464 11.66981 C -0.000819464 5.2271 5.22314 -0.00206708 11.671057 -0.00206708 Z M 11.671057 -0.00206708 " stroke="#000000" stroke-width="16" stroke-opacity="1" stroke-miterlimit="4"/></g></g><g clip-path="url(#e3378f1953)"><g transform="matrix(1, 0, 0, 1, 45, 89)"><g clip-path="url(#1fb437b840)"><g clip-path="url(#6f8f553406)"><path fill="#acc3ff" d="M 0.9375 312.542969 L 0.9375 0.257812 L 18.453125 0.257812 L 18.453125 312.542969 Z M 0.9375 312.542969 " fill-opacity="1" fill-rule="nonzero"/></g></g></g></g><g clip-path="url(#a40a76cce3)"><path stroke-linecap="butt" transform="matrix(0, -0.75, 0.75, 0, 45.937274, 401.472037)" fill="none" stroke-linejoin="miter" d="M -0.000825916 0.000301002 L 416.197151 0.000301002 L 416.197151 23.344054 L -0.000825916 23.344054 Z M -0.000825916 0.000301002 " stroke="#000000" stroke-width="16" stroke-opacity="1" stroke-miterlimit="4"/></g><g clip-path="url(#dd6ca4b6f7)"><g transform="matrix(1, 0, 0, 1, 233, 89)"><g clip-path="url(#27654d9d12)"><g clip-path="url(#f2f6f27342)"><path fill="#acc3ff" d="M 0.867188 312.542969 L 0.867188 0.257812 L 18.386719 0.257812 L 18.386719 312.542969 Z M 0.867188 312.542969 " fill-opacity="1" fill-rule="nonzero"/></g></g></g></g><g clip-path="url(#3122cfbcb8)"><path stroke-linecap="butt" transform="matrix(0, -0.75, 0.75, 0, 233.868721, 401.472037)" fill="none" stroke-linejoin="miter" d="M -0.000825916 -0.00204507 L 416.197151 -0.00204507 L 416.197151 23.341708 L -0.000825916 23.341708 Z M -0.000825916 -0.00204507 " stroke="#000000" stroke-width="16" stroke-opacity="1" stroke-miterlimit="4"/></g><g clip-path="url(#a3f21e95a3)"><g clip-path="url(#80d2baf387)"><g transform="matrix(1, 0, 0, 1, 270, 29)"><g clip-path="url(#62cf21a0af)"><g clip-path="url(#f5dbff3499)"><g clip-path="url(#00e5a5978b)"><path fill="#acc3ff" d="M 0 313.292969 L 0 1.007812 L 17.515625 1.007812 L 17.515625 313.292969 Z M 0 313.292969 " fill-opacity="1" fill-rule="nonzero"/></g></g></g></g></g></g><g clip-path="url(#1e8efd8a6e)"><g clip-path="url(#64d888955d)"><path stroke-linecap="butt" transform="matrix(0, -0.75, 0.75, 0, 269.998578, 342.222042)" fill="none" stroke-linejoin="miter" d="M 11.671057 0.0018966 L 404.525281 0.0018966 C 410.973199 0.0018966 416.197158 5.225856 416.197158 11.673773 C 416.197158 18.116483 410.973199 23.34565 404.525281 23.34565 L 11.671057 23.34565 C 5.22314 23.34565 -0.000819464 18.116483 -0.000819464 11.673773 C -0.000819464 5.225856 5.22314 0.0018966 11.671057 0.0018966 Z M 11.671057 0.0018966 " stroke="#000000" stroke-width="16" stroke-opacity="1" stroke-miterlimit="4"/></g></g></svg>